<?xml version="1.0" encoding="utf-8"?>
<!-- Generator: Adobe Illustrator 19.1.0, SVG Export Plug-In . SVG Version: 6.00 Build 0)  -->
<svg version="1.1" id="Layer_1" xmlns="http://www.w3.org/2000/svg" xmlns:xlink="http://www.w3.org/1999/xlink" x="0px" y="0px"
	 viewBox="0 0 314.5 291" style="enable-background:new 0 0 314.5 291;" xml:space="preserve">
<style type="text/css">
	.st0{fill:none;stroke:#FFFFFF;stroke-width:6;stroke-miterlimit:10;}
</style>
<path class="st0" d="M300.2,24.6C282.4,4.3,249.8,3.4,225.6,22C204.7,9.9,180.4,3,154.5,3c-25.2,0-48.9,6.6-69.4,18
	c-23.7-16.1-54-16.3-70.8,3C-3.1,43.9,0,75.5,20.5,96.9C15,112.1,12,128.4,12,145.5C12,224.2,75.8,288,154.5,288
	c78.7,0,142.5-63.8,142.5-142.5c0-15.4-2.5-30.3-7-44.2C314,79.9,318.6,45.7,300.2,24.6z"/>
</svg>
