<svg version="1.1" id="Layer_1" xmlns="http://www.w3.org/2000/svg" xmlns:xlink="http://www.w3.org/1999/xlink" x="0px" y="0px"
	 width="208px" height="192.608px" viewBox="201.958 299.696 208 192.608" xml:space="preserve">

<path fill="none" stroke="#fff" stroke-width="6" d="M399.57,316.839c-11.654-13.292-33-13.881-48.846-1.703
	c-13.685-7.922-29.595-12.44-46.554-12.44c-16.5,0-32.018,4.321-45.44,11.786c-15.518-10.542-35.357-10.672-46.357,1.964
	c-11.393,13.03-9.363,33.72,4.06,47.732c-3.601,9.953-5.565,20.625-5.565,31.822c0,51.529,41.774,93.304,93.304,93.304
	c51.53,0,93.305-41.774,93.305-93.304c0-10.083-1.638-19.839-4.584-28.941C408.606,353.047,411.618,330.654,399.57,316.839z"/>
</svg>
