<?xml version="1.0" encoding="utf-8"?>
<!-- Generator: Adobe Illustrator 19.1.0, SVG Export Plug-In . SVG Version: 6.00 Build 0)  -->
<svg version="1.1" id="Layer_1" xmlns="http://www.w3.org/2000/svg" xmlns:xlink="http://www.w3.org/1999/xlink" x="0px" y="0px"
	 viewBox="0 0 69.2 64" style="enable-background:new 0 0 69.2 64;" xml:space="preserve">
<style type="text/css">
	.st0{fill:#FFFFFF;}
</style>
<path class="st0" d="M66.7,4.8c-4-4.6-11.3-4.8-16.7-0.6C45.3,1.6,39.8,0,34,0c-5.7,0-11,1.5-15.6,4C13.1,0.4,6.3,0.4,2.5,4.7
	c-3.9,4.5-3.2,11.5,1.4,16.4C2.7,24.5,2,28.2,2,32c0,17.7,14.3,32,32,32c17.7,0,32-14.3,32-32c0-3.5-0.6-6.8-1.6-9.9
	C69.8,17.3,70.8,9.6,66.7,4.8z"/>
</svg>
